<svg width="51" height="47" viewBox="0 0 51 47" fill="none" xmlns="http://www.w3.org/2000/svg">
<path d="M49.5689 33.3681C50.4969 30.5457 51 27.5222 51 24.3778C51 21.1168 50.4578 17.9857 49.4622 15.0743C49.3235 15.0768 49.2418 15.0567 49.16 15.017L48.3955 13.4722C48.2231 13.0196 48.2657 12.5162 48.0257 12.0607C47.9137 11.8483 47.7697 11.6519 47.6115 11.4647C47.2577 11.0485 46.8257 10.6776 46.495 10.2762C46.1875 9.90031 45.7857 9.1269 45.4141 8.86472C45.1332 8.6675 44.7101 8.4717 44.4648 8.22568C44.3261 8.08714 44.1786 7.88347 44.0292 7.67711C43.8479 7.42755 43.6648 7.17405 43.4888 7.02706C43.2986 6.869 43.0905 6.74707 42.8808 6.63022C42.6514 6.5035 42.4168 6.38277 42.1945 6.2283L41.8514 5.85527L41.5083 5.82844C41.2932 5.72295 40.7634 5.09265 40.4541 4.8964C40.0434 4.63616 39.6114 4.49556 39.1616 4.2573L38.3954 3.72466L37.446 3.5118C37.2665 3.43782 37.1634 3.28147 37.0602 3.12541C36.9696 2.98584 36.8789 2.84645 36.7331 2.76625L35.0442 2.23361L34.2264 1.75412C33.6344 1.50467 33.0548 1.48515 32.3793 1.27468L31.7997 1.00862L30.5588 0.822132C30.1037 0.699861 29.6308 0.654823 29.1561 0.622514C28.6335 0.586952 28.1072 0.566745 27.6041 0.475926C27.4032 0.439736 27.1703 0.388247 26.9179 0.332364C26.0414 0.138911 24.9303 -0.106772 24.1214 0.0497482L22.9338 0.31581C22.3454 0.432087 21.9542 0.372949 21.6307 0.323973C21.1329 0.24851 20.7933 0.197135 20.1373 0.848447C19.4173 0.811058 18.804 1.06787 18.18 1.32942C17.7035 1.52858 17.2217 1.73054 16.6813 1.80738L16.4448 1.56763C15.9417 1.73659 15.6502 1.76827 15.3355 2.10032L14.7559 1.99386C14.2741 2.0993 14.0288 2.7018 13.6217 2.89954L12.8306 3.0592L12.2225 3.59183L11.0101 3.75149C10.7559 3.84922 10.6225 4.07469 10.4892 4.29983C10.379 4.48866 10.2687 4.67726 10.0856 4.78994C9.9434 4.87853 9.73362 4.89685 9.5274 4.91489C9.32828 4.93236 9.13272 4.94948 9.00472 5.02968L7.60559 6.36108C7.48114 6.45658 7.31581 6.51 7.15936 6.57291C7.01358 6.63131 6.87669 6.69781 6.7878 6.81368L6.55135 7.34632C6.48557 7.42418 6.37713 7.45957 6.26868 7.49508C6.15135 7.53372 6.03401 7.57248 5.97001 7.66615C5.89179 7.78112 5.85623 7.92514 5.82245 8.06767C5.78156 8.23692 5.74067 8.40412 5.62689 8.51811L5.56289 8.57308C5.29622 8.77316 4.84466 8.76608 4.65088 9.05075L3.99131 10.6487C3.89354 10.8202 3.73176 10.9237 3.57353 11.0256C3.43131 11.1163 3.29086 11.2058 3.20019 11.3411L2.88374 12.7257L2.32907 13.3116C2.20107 13.8432 2.28285 14.4027 2.14418 14.8563L1.35305 16.9337C1.33883 16.9926 1.31039 17.1684 1.27661 17.3814C1.2055 17.84 1.11483 18.4712 1.11661 18.4785C1.13616 18.5781 1.18594 18.6634 1.21616 18.7607C1.24283 18.8465 1.25527 18.9417 1.2215 19.0644L0.720156 20.0233C0.403707 20.7591 0.277483 21.9972 0.430374 22.8726C0.497931 23.2594 0.341484 23.6272 0.19926 23.9644C0.0623687 24.289 -0.0620776 24.5854 0.0339238 24.8431L0.325484 25.2425L0.535264 26.7872L0.457041 27.7725C0.503264 27.9871 0.615266 28.1633 0.730823 28.3451C0.853491 28.5384 0.981493 28.7381 1.03661 28.9974L1.11661 30.1423C1.18772 30.3361 1.34594 30.4539 1.50417 30.5722C1.6535 30.6828 1.80284 30.7939 1.88106 30.9679C1.99484 31.2163 2.00729 31.5536 2.02151 31.8915C2.03395 32.2118 2.0464 32.5327 2.14418 32.7788L3.04197 34.4031L3.64998 35.8947L5.20555 37.3862C5.48289 37.7597 5.538 38.3051 5.81356 38.6644C6.17446 39.138 6.85002 39.3152 7.21092 39.7829C7.58248 40.2648 7.74604 40.8653 8.2136 41.2477L9.18961 41.8868C9.48295 42.1023 9.76029 42.3292 10.0376 42.5564C10.5247 42.9571 11.0119 43.3582 11.5914 43.6976L13.7017 44.6033L14.4661 44.843C14.7168 44.9859 14.9124 45.2018 15.1453 45.3838C15.2981 45.5038 15.467 45.609 15.6804 45.6686L18.0289 45.9083L20.0075 46.5474C20.6636 46.6763 21.4227 46.4454 22.0662 46.6275L22.6725 46.9204C22.8787 46.9749 23.044 46.9381 23.2005 46.8883C23.3889 46.8287 23.5649 46.7504 23.78 46.7871C24.1907 46.857 24.8076 46.7515 25.2841 46.8403L26.2085 47C26.4965 46.951 26.8041 46.8939 27.1134 46.8305C27.4903 46.7532 27.869 46.6666 28.2121 46.5738L29.3997 46.5469L30.7721 46.0675L31.7215 45.961L33.3055 45.1091L34.3864 44.843L35.4158 44.0174L36.2602 43.7244C36.3545 43.6687 36.4291 43.5866 36.5056 43.5033C36.5962 43.4048 36.6887 43.3048 36.8131 43.245L37.4211 42.9789L38.0274 42.2334L38.4825 41.8457C39.2558 41.1912 39.9154 40.6332 40.5341 39.7034L41.3519 38.1586C41.4745 37.9608 41.6576 37.811 41.8372 37.6634C42.0292 37.5069 42.2176 37.3528 42.3279 37.1465L42.6443 35.655L43.4621 33.7108L43.6203 31.5538C43.7715 30.8996 44.0666 30.5041 44.2283 29.8494L44.255 28.9974C44.4292 27.9976 44.4203 26.754 44.4132 25.5886C44.4115 25.3927 44.4328 25.2206 44.4541 25.0573C44.4843 24.8229 44.5128 24.6065 44.4648 24.3636L43.9386 22.3399L43.8052 21.3278L43.3572 20.3426L43.1723 19.4105C43.0603 19.1222 42.8897 18.8337 42.7065 18.546C42.495 18.2112 42.2656 17.8776 42.0914 17.5465C41.7572 16.9098 41.7234 16.2575 41.3252 15.6555C40.175 13.9145 38.758 12.6915 37.0247 11.5276L35.4424 10.2225L34.4398 9.95642L32.9891 9.31732L32.0646 9.23724L30.0344 8.49174L27.8708 8.57183L26.9196 8.27888L23.6752 8.51857C23.0103 8.62794 22.4716 8.36627 21.828 8.51857L21.4333 8.73143C21.0636 8.8634 20.6724 8.91147 20.276 8.96027C19.8902 9.00788 19.4973 9.05623 19.1115 9.18404L16.4715 10.5423C16.0342 10.835 15.675 11.2153 15.3177 11.5939C15.0279 11.8993 14.7399 12.2035 14.4146 12.4596C14.107 12.7008 13.7532 12.8404 13.5168 13.1519C13.2608 13.4883 13.1541 13.9101 12.9372 14.2968L11.275 16.6403C10.8287 17.3858 10.571 18.4917 10.299 19.3568L10.1923 21.2209L9.87584 22.7124C9.83851 22.9353 9.85273 23.1625 9.88651 23.3796C9.93273 23.6643 10.0127 23.9318 10.0607 24.1503C10.1585 24.5925 10.1798 25.0527 10.2012 25.5148C10.2278 26.0607 10.2545 26.609 10.4039 27.1329L10.9052 28.2246L11.3532 30.009C11.8137 30.922 12.6848 32.5186 13.4386 33.125L15.2324 34.3768C15.3639 34.4783 15.4635 34.6165 15.5613 34.7599C15.6893 34.9491 15.8119 35.1474 15.9968 35.2824L16.9995 35.7619L17.4137 35.9879C17.8528 36.2316 18.3009 36.4811 18.82 36.6407L20.1124 36.8804L21.2218 37.3862C21.588 37.5005 22.3774 37.5615 22.8574 37.4663L23.2271 37.3862C23.6769 37.4629 24.4414 37.5576 24.9676 37.4395L25.6272 37.1734C25.8832 37.105 26.2121 37.1285 26.5339 37.1284C26.7436 37.1284 26.9499 37.1185 27.1312 37.067C27.7374 36.8951 28.4166 36.6412 29.0583 36.401C29.4672 36.2481 29.7819 35.9976 30.0948 35.7492C30.2388 35.6343 30.3828 35.5199 30.5357 35.4157C32.3295 34.1863 34.0895 32.5054 34.9144 30.3293L35.1793 28.9979L35.5473 28.0391C35.5882 27.8335 35.5313 27.6715 35.478 27.5215C35.4531 27.4528 35.4282 27.3866 35.4158 27.3199L35.4691 25.7219C35.3678 25.1594 35.1953 24.7234 35.0211 24.2834C34.95 24.101 34.8771 23.9178 34.8095 23.7245L34.6246 22.8189C34.5073 22.4156 34.2673 22.0718 34.0344 21.7377C33.926 21.5828 33.8193 21.4299 33.7269 21.2741L33.3571 20.4754C32.8913 19.8094 32.0628 19.6117 31.485 19.0639C30.6033 18.231 29.5117 17.4024 28.0539 17.173C27.933 17.1539 27.805 17.1845 27.6645 17.2178C27.5401 17.2475 27.4068 17.2792 27.2628 17.2794L27.0014 17.2783C26.5605 17.2753 26.1374 17.2725 25.7587 17.3594C23.7729 17.8145 21.2449 18.8979 20.2458 20.3421C20.0644 20.6037 19.9489 20.908 19.8315 21.2166C19.7569 21.4149 19.6804 21.615 19.5862 21.8067L19.1098 22.5791C18.9995 22.8599 18.9586 25.5012 19.0831 25.8283C19.1578 26.0214 19.4991 26.5533 19.8689 27.0685C20.2582 27.6111 20.6778 28.1351 20.852 28.225C21.0369 28.3208 21.252 28.3504 21.4742 28.3811C21.652 28.4056 21.8351 28.4308 22.0129 28.4912L23.0671 28.9706C23.4689 29.0507 23.8423 28.7792 24.1498 28.7045L25.0476 28.6245L25.2841 28.3847L25.5739 28.2783C26.1587 27.9009 26.8805 27.2262 26.5765 25.988C26.3703 25.1438 25.2236 25.0462 24.5196 24.683C24.4521 24.6478 23.4209 22.9346 23.4103 22.8452C23.3818 22.59 23.5507 22.4102 23.7018 22.2473C23.7747 22.1697 23.844 22.0959 23.8867 22.0197C24.0165 21.7848 24.0129 21.446 24.2281 21.3005C24.9178 20.8352 27.0832 20.7649 27.869 21.2204L28.2121 21.673L28.9783 22.0192L29.2415 22.5782L29.7428 22.9512L29.8744 23.4038L30.3224 23.9096L30.429 24.4422L30.6921 24.9217L30.7455 25.4275C30.9162 25.8752 31.3713 26.2072 31.5099 26.7326L31.1668 29.3158L30.5339 30.0081L29.9526 31.0202L29.9259 31.047L29.1615 31.3668C29.0157 31.4808 28.941 31.683 28.8663 31.8835C28.7881 32.0937 28.7117 32.3021 28.5552 32.4053C28.4574 32.4692 28.317 32.4946 28.1641 32.5072C27.8974 32.5291 27.5934 32.5116 27.421 32.5918C27.3037 32.6459 27.2148 32.7293 27.1365 32.8216C26.9854 33.0019 26.877 33.2161 26.6814 33.311L25.5739 33.4174C25.4067 33.4527 25.2485 33.4914 25.0903 33.5298C24.5996 33.6495 24.1214 33.7658 23.4618 33.7635C22.8449 32.9907 21.8191 33.2309 20.8502 32.8579C19.8209 32.4614 19.0333 31.8731 18.1853 31.3131L16.8146 30.5144C15.6875 29.6751 14.635 28.0317 14.2297 26.4664L14.0448 24.9486V23.8832C13.995 23.6497 13.8688 23.4169 13.7639 23.168C13.6501 22.8996 13.5612 22.6125 13.6217 22.2852C13.6821 21.952 13.7995 21.6603 13.9097 21.3885L14.0181 21.1135C14.059 20.9999 14.0608 20.8883 14.0626 20.7824C14.0626 20.6825 14.0626 20.5875 14.0964 20.5008L14.4928 19.8085L14.8092 18.5034C14.8999 18.2851 15.0546 18.1218 15.2057 17.9623C15.3373 17.8228 15.467 17.6862 15.5488 17.5181L15.6004 17.0656L16.0484 16.7194C16.3186 16.361 16.4751 15.9348 16.7613 15.6009C17.0386 15.2769 17.4511 15.0578 17.86 14.8409C18.1337 14.6952 18.4057 14.5506 18.6351 14.3759L19.0049 13.9233L20.6138 12.7784C20.7987 12.6856 20.9871 12.6194 21.1809 12.5633C21.5418 12.4586 21.9169 12.3888 22.3027 12.2458L22.6974 12.006C22.8431 11.964 24.1712 12.0519 24.3596 12.0861C24.6565 12.1392 24.8698 12.0581 25.0796 11.9778C25.2894 11.8979 25.4974 11.8187 25.7836 11.8732L26.9979 12.2994C27.485 12.4032 27.9668 12.3265 28.4539 12.2565C28.8912 12.1938 29.3357 12.1365 29.7944 12.2194C30.5108 12.349 31.0193 12.5878 31.5633 12.8441L31.8797 12.9918L33.2237 13.4976C33.4869 13.6232 33.7553 13.9082 34.0255 14.1937C34.2424 14.4242 34.4611 14.655 34.6762 14.8026L36.5216 15.9743C36.9429 16.4128 37.2967 17.4117 37.7091 17.9449L38.6069 18.7173C38.8683 19.0605 38.9607 19.5312 39.1883 19.9158L39.9527 21.1145C40.0896 21.4811 39.9527 21.962 40.0576 22.3394C40.1732 22.7539 40.447 22.9908 40.559 23.3247C40.7172 23.7909 40.671 24.5086 40.7972 24.9227L40.7439 25.5354L41.0603 26.6803C41.1474 27.1312 41.0052 27.5609 40.879 27.9433C40.8239 28.1088 40.7723 28.2654 40.7439 28.4111L40.6638 29.8489L40.3741 30.861C40.3065 31.1664 40.2692 31.4504 40.2336 31.7269C40.1874 32.0887 40.1412 32.4377 40.0309 32.8052C39.8692 33.3407 39.4763 33.722 39.2398 34.1898L38.6603 35.6012C38.534 35.7817 38.3563 35.9359 38.1714 36.0967C37.9403 36.2988 37.6967 36.5114 37.526 36.7999C37.4122 36.9918 37.3091 37.2054 37.1954 37.4085C37.0549 37.6595 36.8985 37.8943 36.6816 38.0517L36.1002 38.3715L35.4407 38.9842C35.206 39.1336 34.95 39.1746 34.7562 39.3572L33.9633 40.2629C32.9322 41.0753 31.4975 41.6797 30.0859 42.1006L29.4797 42.1274L28.6086 42.3672H27.8423C27.1597 42.4921 26.4308 42.8964 25.5205 42.7402C25.0814 42.6645 24.4396 42.7206 23.9383 42.6338L23.0156 42.5005C21.7142 42.7016 20.7862 42.4428 19.7427 42.1274L18.4235 41.8614C18.02 41.7281 17.6075 41.5482 17.2022 41.3714C16.8804 41.2315 16.5639 41.0936 16.2599 40.9825C16.0182 40.8939 15.7835 40.8623 15.5613 40.8321C15.2608 40.7916 14.9799 40.7537 14.7292 40.5832L13.147 39.2781L12.2243 38.8256C12.1585 38.7686 12.1194 38.6842 12.0768 38.6012C12.0394 38.5253 11.9985 38.4506 11.9328 38.3993C11.2696 37.8784 10.2723 37.3496 9.76918 36.6949C9.63584 36.519 9.5274 36.324 9.42073 36.1299C9.30873 35.928 9.1985 35.7272 9.05805 35.55L8.10693 34.5647L7.76381 33.6591C7.63048 33.4472 7.45981 33.2851 7.28736 33.1216C7.0598 32.9067 6.83047 32.6895 6.68291 32.3541C6.24557 31.3702 5.90601 30.3928 5.602 29.3182L5.33711 27.8535C5.27844 27.6221 5.18067 27.387 5.08466 27.1581C4.98155 26.9078 4.88199 26.6649 4.83755 26.442L4.91577 25.7497C4.88911 25.6187 4.85533 25.4838 4.81977 25.3427C4.7611 25.108 4.6971 24.8564 4.65266 24.578V22.8204L4.54777 21.755L5.25889 18.9589C5.41534 18.209 5.234 17.3322 5.44378 16.6423L5.89179 16.0564C6.06423 15.765 6.22601 15.3988 6.35579 15.1047L6.39313 15.0179L6.63135 13.8462C6.75402 13.477 7.05092 13.2325 7.34247 12.9921C7.63937 12.747 7.93093 12.5061 8.02871 12.1418L7.92382 11.4494C8.06782 11.3131 8.23849 11.2171 8.40738 11.1218C8.64205 10.9897 8.87494 10.859 9.03139 10.6238C9.29984 10.2235 9.3905 9.54679 9.77096 9.26561C10.043 9.0649 10.4661 9.06587 10.7203 8.8662C10.8661 8.75255 10.9745 8.59243 11.0848 8.43197C11.2145 8.24035 11.3443 8.04821 11.5381 7.93416C11.8474 7.75332 12.1905 7.65639 12.539 7.5585C12.843 7.4727 13.1488 7.38616 13.4386 7.24186L14.4661 6.57593L15.627 6.22979C15.8439 6.11945 16.0573 5.99655 16.2742 5.87165C16.8182 5.55718 17.3853 5.22993 18.0822 5.058L19.6129 4.87151C19.6964 4.83737 19.7693 4.78577 19.8458 4.73211C19.9649 4.64854 20.0911 4.56012 20.2724 4.52536H21.1418L21.5382 4.20553L22.8574 3.64652L23.9116 3.75298C24.0876 3.73363 24.2689 3.67957 24.4521 3.62483C24.7721 3.52904 25.0992 3.4312 25.4156 3.51323C25.5401 3.54577 25.6574 3.60639 25.7854 3.66085C25.9721 3.74048 26.1819 3.80692 26.4716 3.75298C26.9214 3.66946 27.2343 3.24323 27.8441 3.37994C28.0308 3.42195 28.2032 3.52094 28.3792 3.62237C28.5357 3.71188 28.6957 3.80332 28.8717 3.85938L30.5073 4.1255L31.4584 4.68451L32.9891 5.03065L33.9651 5.66975C34.2798 5.84248 34.6051 5.99415 34.9233 6.14245C35.1562 6.25068 35.3838 6.35708 35.6007 6.46851C36.0487 6.69889 36.5518 6.86089 37.0496 7.02169C37.6007 7.19928 38.1447 7.37532 38.6087 7.64024C39.5456 8.17584 40.1216 9.06639 40.9039 9.69081C41.2007 9.92908 41.5954 10.0785 41.8265 10.3832L42.2479 11.342C42.3652 11.5031 42.5572 11.5907 42.751 11.6785C42.9412 11.7649 43.1314 11.8514 43.2506 12.008C43.327 12.1087 43.3839 12.2413 43.4426 12.3752C43.5297 12.5774 43.6168 12.7828 43.7786 12.8868C44.0363 13.0518 44.2941 12.9903 44.4648 13.233C45.007 13.9995 45.2541 15.0404 45.6524 15.9495L46.4435 17.2276L46.4702 17.8404L46.7333 18.5064L46.8133 19.2255C47.0142 19.8988 47.528 20.2512 47.736 21.0364L47.8693 22.1017L48.1857 22.9536L48.3706 24.3119L48.6604 24.8709L48.6871 25.8562C48.9111 27.0075 49.272 28.127 49.6044 29.1628L49.6098 29.1849L49.5689 33.3681Z" fill="black"/>
</svg>
