<svg width="56" height="52" viewBox="0 0 56 52" fill="none" xmlns="http://www.w3.org/2000/svg">
<path d="M54.4286 36.754C55.4476 33.6848 56 30.3967 56 26.9773C56 23.431 55.4046 20.026 54.3114 16.8598C54.1592 16.8626 54.0694 16.8407 53.9796 16.7975L53.1402 15.1176C52.9508 14.6254 52.9977 14.078 52.7341 13.5826C52.6112 13.3516 52.453 13.138 52.2793 12.9344C51.8908 12.4819 51.4165 12.0785 51.0534 11.642C50.7157 11.2332 50.2745 10.3922 49.8665 10.107C49.5581 9.89256 49.0935 9.67964 48.8241 9.41209C48.6718 9.26143 48.5098 9.03994 48.3458 8.81554C48.1467 8.54414 47.9456 8.26846 47.7524 8.10861C47.5435 7.93672 47.3151 7.80413 47.0848 7.67706C46.8329 7.53925 46.5753 7.40796 46.3313 7.23998L45.9545 6.83431L45.5777 6.80513C45.3415 6.69042 44.7598 6.00497 44.4202 5.79155C43.9692 5.50854 43.4949 5.35565 43.001 5.09654L42.1596 4.51731L41.1172 4.28583C40.92 4.20538 40.8068 4.03535 40.6936 3.86563C40.594 3.71386 40.4945 3.56226 40.3344 3.47505L38.4799 2.89581L37.582 2.37437C36.9319 2.1031 36.2955 2.08187 35.5537 1.85299L34.9173 1.56366L33.5548 1.36085C33.055 1.22788 32.5358 1.17891 32.0146 1.14377C31.4407 1.1051 30.8628 1.08312 30.3104 0.984359C30.0898 0.945003 29.8341 0.88901 29.5569 0.828237C28.5945 0.61786 27.3744 0.350684 26.4862 0.520897L25.1822 0.810235C24.5361 0.936685 24.1066 0.872373 23.7513 0.819112C23.2048 0.737047 22.8319 0.681178 22.1116 1.38947C21.321 1.34881 20.6475 1.62809 19.9623 1.91252C19.4392 2.12911 18.9101 2.34873 18.3167 2.43229L18.0571 2.17157C17.5046 2.35531 17.1845 2.38977 16.839 2.75087L16.2026 2.63509C15.6736 2.74975 15.4042 3.40496 14.9571 3.62L14.0885 3.79362L13.4208 4.37286L12.0895 4.54649C11.8104 4.65276 11.6639 4.89796 11.5175 5.14279C11.3965 5.34814 11.2755 5.55324 11.0744 5.67578C10.9182 5.77212 10.6879 5.79205 10.4615 5.81166C10.2428 5.83066 10.0281 5.84928 9.88754 5.9365L8.35124 7.38437C8.21459 7.48822 8.03304 7.54632 7.86126 7.61473C7.70119 7.67824 7.55088 7.75056 7.45327 7.87657L7.19364 8.4558C7.12141 8.54048 7.00234 8.57896 6.88326 8.61758C6.75442 8.6596 6.62558 8.70175 6.55531 8.80362C6.46941 8.92864 6.43037 9.08526 6.39328 9.24026C6.34838 9.42432 6.30348 9.60614 6.17855 9.73011L6.10827 9.78989C5.81546 10.0075 5.31963 9.99977 5.10685 10.3093L4.38262 12.0471C4.27525 12.2336 4.09761 12.3462 3.92388 12.457C3.76771 12.5556 3.61349 12.653 3.51394 12.8L3.16646 14.3058L2.55741 14.9429C2.41686 15.5211 2.50665 16.1296 2.35439 16.6228L1.48571 18.882C1.47009 18.946 1.43886 19.1372 1.40177 19.3688C1.32368 19.8675 1.22413 20.5539 1.22608 20.5619C1.24755 20.6702 1.30221 20.7629 1.33539 20.8687C1.36468 20.9621 1.37834 21.0656 1.34125 21.199L0.79076 22.2418C0.443286 23.0419 0.304687 24.3884 0.472568 25.3404C0.546747 25.761 0.374963 26.161 0.218795 26.5277C0.0684832 26.8807 -0.0681636 27.203 0.0372497 27.4833L0.357394 27.9176L0.587741 29.5975L0.501849 30.6689C0.552604 30.9024 0.675586 31.0939 0.802472 31.2916C0.937167 31.5018 1.07772 31.719 1.13823 32.001L1.22608 33.2461C1.30416 33.4569 1.4779 33.5849 1.65163 33.7136C1.81561 33.8339 1.97959 33.9547 2.06548 34.1439C2.19041 34.4141 2.20408 34.7809 2.2197 35.1483C2.23336 35.4966 2.24702 35.8456 2.35439 36.1132L3.3402 37.8797L4.00782 39.5017L5.7159 41.1237C6.02043 41.5299 6.08095 42.123 6.38352 42.5137C6.7798 43.0288 7.52159 43.2215 7.91787 43.7301C8.32586 44.2542 8.50545 44.9072 9.01885 45.323L10.0906 46.018C10.4127 46.2523 10.7172 46.4992 11.0217 46.7462C11.5566 47.1819 12.0915 47.6182 12.7278 47.9873L15.045 48.9722L15.8844 49.2328C16.1596 49.3883 16.3744 49.6231 16.6301 49.8209C16.798 49.9515 16.9834 50.0659 17.2177 50.1307L19.7964 50.3913L21.9691 51.0864C22.6894 51.2265 23.5229 50.9754 24.2296 51.1734L24.8953 51.492C25.1217 51.5512 25.3033 51.5113 25.475 51.4571C25.682 51.3923 25.8752 51.3072 26.1114 51.3471C26.5624 51.423 27.2397 51.3083 27.7629 51.4049L28.778 51.5786C29.0942 51.5252 29.4319 51.4632 29.7716 51.3942C30.1855 51.3102 30.6012 51.216 30.978 51.115L32.282 51.0859L33.789 50.5645L34.8314 50.4487L36.5708 49.5222L37.7576 49.2328L38.8879 48.335L39.8152 48.0164C39.9186 47.9558 40.0006 47.8665 40.0845 47.7759C40.1841 47.6689 40.2856 47.56 40.4223 47.495L41.0899 47.2057L41.7555 46.3949L42.2553 45.9734C43.1044 45.2616 43.8287 44.6547 44.508 43.6436L45.406 41.9637C45.5407 41.7485 45.7417 41.5856 45.9389 41.4252C46.1497 41.255 46.3566 41.0874 46.4777 40.8631L46.8251 39.241L47.7231 37.1268L47.8968 34.7811C48.0628 34.0696 48.3868 33.6395 48.5645 32.9275L48.5937 32.001C48.785 30.9137 48.7753 29.5614 48.7675 28.294C48.7655 28.081 48.7889 27.8938 48.8124 27.7162C48.8456 27.4613 48.8768 27.226 48.8241 26.9619L48.2463 24.7611L48.0999 23.6605L47.6079 22.589L47.4049 21.5754C47.2819 21.2618 47.0945 20.9481 46.8935 20.6353C46.6612 20.2712 46.4093 19.9084 46.218 19.5483C45.851 18.8559 45.8139 18.1466 45.3767 17.4919C44.1137 15.5986 42.5578 14.2686 40.6546 13.0028L38.9172 11.5836L37.8162 11.2942L36.2233 10.5992L35.2082 10.5121L32.9789 9.70143L30.6032 9.78852L29.5588 9.46995L25.9963 9.7306C25.2662 9.84954 24.6747 9.56498 23.968 9.7306L23.5347 9.96209C23.1286 10.1056 22.6992 10.1579 22.2638 10.211C21.8402 10.2627 21.4088 10.3153 20.9852 10.4543L18.0863 11.9314C17.6061 12.2497 17.2118 12.6633 16.8194 13.075C16.5012 13.4071 16.185 13.7379 15.8278 14.0164C15.4901 14.2787 15.1016 14.4305 14.842 14.7693C14.5609 15.1351 14.4437 15.5938 14.2056 16.0143L12.3804 18.5629C11.8904 19.3736 11.6073 20.5762 11.3087 21.517L11.1915 23.5442L10.8441 25.1662C10.8031 25.4086 10.8187 25.6556 10.8558 25.8917C10.9065 26.2013 10.9944 26.4922 11.0471 26.7298C11.1544 27.2107 11.1779 27.7113 11.2013 28.2137C11.2306 28.8074 11.2599 29.4037 11.4238 29.9734L11.9743 31.1606L12.4663 33.1012C12.9719 34.094 13.9284 35.8302 14.7561 36.4897L16.7257 37.851C16.8702 37.9614 16.9795 38.1117 17.0869 38.2677C17.2274 38.4734 17.3621 38.6891 17.5651 38.8359L18.6661 39.3573L19.121 39.603C19.6031 39.8681 20.0951 40.1394 20.6651 40.313L22.0842 40.5737L23.3024 41.1237C23.7045 41.248 24.5712 41.3144 25.0983 41.2108L25.5043 41.1237C25.9982 41.2071 26.8376 41.3101 27.4154 41.1816L28.1397 40.8922C28.4208 40.8179 28.7819 40.8434 29.1352 40.8434C29.3656 40.8434 29.592 40.8326 29.7911 40.7765C30.4568 40.5896 31.2025 40.3135 31.9072 40.0523C32.3562 39.886 32.7017 39.6136 33.0453 39.3435C33.2034 39.2185 33.3615 39.0941 33.5294 38.9808C35.4991 37.6439 37.4316 35.8159 38.3374 33.4495L38.6283 32.0016L39.0324 30.9588C39.0773 30.7352 39.0148 30.5591 38.9562 30.3959C38.9289 30.3213 38.9016 30.2493 38.8879 30.1767L38.9465 28.439C38.8352 27.8272 38.6458 27.3531 38.4545 26.8747C38.3765 26.6762 38.2964 26.477 38.2222 26.2669L38.0192 25.282C37.8904 24.8434 37.6269 24.4696 37.3711 24.1062C37.252 23.9377 37.1349 23.7715 37.0334 23.6021L36.6274 22.7334C36.1159 22.0092 35.2062 21.7942 34.5718 21.1985C33.6036 20.2927 32.405 19.3917 30.8043 19.1421C30.6715 19.1214 30.531 19.1547 30.3768 19.1908C30.2401 19.2231 30.0937 19.2576 29.9356 19.2579L29.6486 19.2567C29.1645 19.2534 28.6999 19.2504 28.2841 19.3449C26.1036 19.8398 23.3277 21.0179 22.2307 22.5885C22.0315 22.873 21.9047 23.2039 21.7758 23.5395C21.6938 23.7552 21.6099 23.9728 21.5064 24.1813L20.9833 25.0212C20.8622 25.3265 20.8173 28.199 20.954 28.5547C21.036 28.7646 21.4108 29.3431 21.8168 29.9034C22.2443 30.4935 22.705 31.0633 22.8963 31.1611C23.0993 31.2653 23.3355 31.2974 23.5796 31.3307C23.7748 31.3574 23.9758 31.3849 24.171 31.4505L25.3286 31.9719C25.7698 32.059 26.1797 31.7637 26.5175 31.6825L27.5033 31.5954L27.7629 31.3347L28.0811 31.219C28.7233 30.8086 29.5159 30.0748 29.1821 28.7283C28.9556 27.8103 27.6965 27.7041 26.9235 27.3091C26.8493 27.2709 25.7171 25.4078 25.7054 25.3106C25.6742 25.033 25.8596 24.8375 26.0255 24.6603C26.1056 24.576 26.1817 24.4958 26.2285 24.4128C26.3711 24.1575 26.3671 23.789 26.6034 23.6307C27.3608 23.1248 29.7384 23.0483 30.6012 23.5436L30.978 24.0358L31.8194 24.4123L32.1083 25.0202L32.6588 25.4259L32.8032 25.9181L33.2951 26.4681L33.4123 27.0474L33.7012 27.5687L33.7597 28.1188C33.9471 28.6057 34.4469 28.9667 34.5991 29.538L34.2224 32.3472L33.5274 33.1001L32.8891 34.2008L32.8598 34.23L32.0204 34.5777C31.8604 34.7017 31.7784 34.9216 31.6964 35.1396C31.6105 35.3682 31.5265 35.5948 31.3548 35.7071C31.2474 35.7765 31.0932 35.8042 30.9253 35.8179C30.6325 35.8417 30.2987 35.8227 30.1093 35.9099C29.9805 35.9687 29.8829 36.0594 29.797 36.1598C29.6311 36.3559 29.512 36.5887 29.2972 36.692L28.0811 36.8077C27.8976 36.8461 27.7239 36.8882 27.5501 36.9299C27.0113 37.0601 26.4862 37.1865 25.762 37.1841C25.0846 36.3437 23.9583 36.6049 22.8944 36.1992C21.7641 35.7681 20.8993 35.1283 19.9682 34.5193L18.4631 33.6507C17.2255 32.738 16.0698 30.9508 15.6248 29.2486L15.4217 27.598V26.4394C15.3671 26.1855 15.2285 25.9323 15.1133 25.6616C14.9884 25.3698 14.8908 25.0575 14.9571 24.7016C15.0235 24.3392 15.1523 24.022 15.2734 23.7265L15.3925 23.4274C15.4374 23.3039 15.4393 23.1825 15.4413 23.0673C15.4413 22.9586 15.4413 22.8554 15.4783 22.761L15.9137 22.0082L16.2611 20.5889C16.3607 20.3516 16.5305 20.174 16.6965 20.0005C16.8409 19.8489 16.9834 19.7002 17.0732 19.5175L17.1298 19.0254L17.6217 18.6489C17.9185 18.2591 18.0903 17.7957 18.4045 17.4325C18.7091 17.0801 19.162 16.8419 19.6109 16.606C19.9116 16.4476 20.2102 16.2903 20.4621 16.1004L20.8681 15.6082L22.6347 14.3631C22.8378 14.2622 23.0447 14.1902 23.2575 14.1292C23.6537 14.0153 24.0656 13.9394 24.4892 13.7839L24.9226 13.5232C25.0827 13.4775 26.5409 13.5731 26.7478 13.6103C27.0738 13.668 27.3081 13.5798 27.5384 13.4924C27.7688 13.4055 27.9972 13.3194 28.3114 13.3788L29.6447 13.8422C30.1796 13.9551 30.7086 13.8717 31.2435 13.7955C31.7237 13.7274 32.2117 13.6651 32.7154 13.7552C33.5021 13.8961 34.0604 14.1558 34.6577 14.4345L35.0052 14.5952L36.481 15.1452C36.7699 15.2818 37.0646 15.5917 37.3614 15.9022C37.5995 16.1528 37.8396 16.4039 38.0758 16.5644L40.1021 17.8386C40.5648 18.3154 40.9532 19.4018 41.4061 19.9816L42.3919 20.8215C42.6789 21.1947 42.7804 21.7066 43.0303 22.125L43.8697 23.4284C44.02 23.8272 43.8697 24.3501 43.9848 24.7606C44.1117 25.2113 44.4123 25.4689 44.5353 25.832C44.7091 26.3391 44.6583 27.1195 44.7969 27.5698L44.7383 28.2361L45.0858 29.4812C45.1815 29.9715 45.0253 30.4388 44.8867 30.8547C44.8262 31.0347 44.7696 31.205 44.7383 31.3634L44.6505 32.927L44.3323 34.0277C44.2581 34.3598 44.2171 34.6686 44.1781 34.9693C44.1273 35.3627 44.0766 35.7423 43.9556 36.1419C43.7779 36.7243 43.3465 37.139 43.0869 37.6476L42.4505 39.1826C42.3119 39.3788 42.1167 39.5465 41.9137 39.7214C41.6599 39.9412 41.3924 40.1724 41.205 40.4861C41.0801 40.6948 40.9669 40.9271 40.842 41.1479C40.6877 41.4209 40.516 41.6763 40.2778 41.8474L39.6395 42.1952L38.9152 42.8615C38.6576 43.024 38.3765 43.0686 38.1637 43.2672L37.293 44.2521C36.1608 45.1355 34.5855 45.7929 33.0355 46.2505L32.3699 46.2797L31.4133 46.5404H30.572C29.8224 46.6763 29.022 47.1159 28.0225 46.946C27.5404 46.8638 26.8357 46.9248 26.2852 46.8303L25.272 46.6854C23.8431 46.9041 22.8241 46.6227 21.6782 46.2797L20.2298 45.9904C19.7866 45.8454 19.3337 45.6498 18.8887 45.4576C18.5353 45.3054 18.1879 45.1555 17.854 45.0347C17.5886 44.9382 17.3309 44.9039 17.0869 44.8711C16.757 44.827 16.4485 44.7859 16.1733 44.6004L14.4359 43.1811L13.4228 42.689C13.3506 42.6271 13.3076 42.5352 13.2608 42.445C13.2198 42.3625 13.1749 42.2813 13.1026 42.2255C12.3745 41.6589 11.2794 41.0839 10.7269 40.3719C10.5805 40.1807 10.4615 39.9685 10.3443 39.7575C10.2213 39.538 10.1003 39.3196 9.9461 39.1269L8.90173 38.0554L8.52497 37.0705C8.37856 36.8401 8.19116 36.6638 8.00181 36.486C7.75194 36.2523 7.50012 36.0161 7.3381 35.6513C6.85788 34.5814 6.48503 33.5185 6.15122 32.3499L5.86036 30.757C5.79594 30.5054 5.68857 30.2497 5.58316 30.0008C5.46994 29.7286 5.36062 29.4644 5.31182 29.2221L5.39771 28.4692C5.36843 28.3267 5.33134 28.18 5.2923 28.0266C5.22788 27.7714 5.1576 27.4978 5.1088 27.195V25.2836L4.99363 24.125L5.77447 21.0843C5.94625 20.2688 5.74714 19.3153 5.97748 18.565L6.46941 17.9278C6.65877 17.611 6.83641 17.2127 6.97891 16.8929L7.0199 16.7986L7.28149 15.5243C7.41618 15.1229 7.74218 14.8569 8.06233 14.5955C8.38833 14.3289 8.70847 14.0669 8.81583 13.6708L8.70066 12.9179C8.85878 12.7696 9.04618 12.6653 9.23163 12.5616C9.48931 12.418 9.74503 12.2757 9.91682 12.02C10.2116 11.5847 10.3111 10.8488 10.7289 10.543C11.0276 10.3247 11.4922 10.3258 11.7713 10.1086C11.9314 9.98505 12.0505 9.81093 12.1715 9.63643C12.314 9.42804 12.4565 9.2191 12.6693 9.09507C13.0089 8.89841 13.3857 8.793 13.7683 8.68654C14.1021 8.59324 14.4379 8.49913 14.7561 8.3422L15.8844 7.61802L17.1591 7.24159C17.3973 7.1216 17.6315 6.98795 17.8697 6.85212C18.467 6.51015 19.0897 6.15426 19.8549 5.96729L21.5357 5.76448C21.6275 5.72736 21.7075 5.67125 21.7914 5.61289C21.9222 5.52202 22.0608 5.42586 22.2599 5.38805H23.2145L23.6498 5.04024L25.0983 4.43233L26.2559 4.5481C26.4491 4.52706 26.6483 4.46827 26.8493 4.40874C27.2007 4.30457 27.5599 4.19817 27.9074 4.28738C28.044 4.32276 28.1728 4.38869 28.3134 4.44791C28.5184 4.5345 28.7487 4.60676 29.0669 4.5481C29.5608 4.45728 29.9044 3.99376 30.5739 4.14243C30.7789 4.18812 30.9682 4.29576 31.1615 4.40607C31.3333 4.5034 31.509 4.60285 31.7022 4.66381L33.4982 4.95321L34.5425 5.56112L36.2233 5.93755L37.295 6.63256C37.6405 6.8204 37.9977 6.98534 38.3472 7.14661C38.6029 7.26431 38.8528 7.38002 39.0909 7.50119C39.5829 7.75173 40.1353 7.92791 40.6819 8.10278C41.287 8.2959 41.8844 8.48734 42.3939 8.77544C43.4226 9.3579 44.0551 10.3264 44.914 11.0054C45.24 11.2645 45.6734 11.427 45.9272 11.7583L46.3898 12.8011C46.5187 12.9762 46.7295 13.0715 46.9423 13.167C47.1511 13.2609 47.36 13.355 47.4908 13.5253C47.5747 13.6348 47.6372 13.779 47.7016 13.9246C47.7973 14.1445 47.8929 14.3679 48.0706 14.481C48.3536 14.6605 48.6367 14.5935 48.8241 14.8574C49.4195 15.691 49.6908 16.8229 50.1281 17.8116L50.9968 19.2016L51.0261 19.8679L51.315 20.5922L51.4028 21.3742C51.6234 22.1064 52.1875 22.4897 52.4159 23.3435L52.5624 24.502L52.9098 25.4285L53.1128 26.9056L53.431 27.5135L53.4603 28.585C53.7063 29.837 54.1026 31.0545 54.4676 32.1809L54.4735 32.205L54.4286 36.754Z" fill="white"/>
</svg>
