<svg width="30" height="30" viewBox="0 0 30 30" fill="none" xmlns="http://www.w3.org/2000/svg">
<g clip-path="url(#clip0_594_733)">
<path d="M29.7998 15.0883C29.7998 7.03056 23.3088 0.5 15.2998 0.5C7.29082 0.5 0.799805 7.03056 0.799805 15.0883C0.799805 22.3711 6.10137 28.4059 13.0342 29.5V19.3053H9.35254V15.0883H13.0342V11.8743C13.0342 8.21871 15.1978 6.19857 18.5113 6.19857C20.0972 6.19857 21.7568 6.48349 21.7568 6.48349V10.0736H19.9273C18.1262 10.0736 17.5654 11.1991 17.5654 12.353V15.0883H21.5869L20.944 19.3053H17.5654V29.5C24.4982 28.4059 29.7998 22.3711 29.7998 15.0883Z" fill="#FCFCF9"/>
</g>
<defs>
<clipPath id="clip0_594_733">
<rect width="30" height="29" fill="white" transform="translate(0 0.5)"/>
</clipPath>
</defs>
</svg>
