<svg width="34" height="24" viewBox="0 0 34 24" fill="none" xmlns="http://www.w3.org/2000/svg">
<path d="M32.816 4.05437C32.439 2.65416 31.335 1.55015 29.9348 1.17318C27.3768 0.5 17.1445 0.5 17.1445 0.5C17.1445 0.5 6.91224 0.5 4.35417 1.17318C2.95396 1.52323 1.84996 2.62724 1.47298 4.05437C0.799805 6.61244 0.799805 11.9171 0.799805 11.9171C0.799805 11.9171 0.799805 17.2486 1.47298 19.7798C1.84996 21.18 2.95396 22.284 4.35417 22.6609C6.91224 23.3341 17.1445 23.3341 17.1445 23.3341C17.1445 23.3341 27.3768 23.3341 29.9348 22.6609C31.335 22.284 32.439 21.18 32.816 19.7798C33.4892 17.2217 33.4892 11.9171 33.4892 11.9171C33.4892 11.9171 33.4892 6.58551 32.816 4.05437ZM13.8594 16.8178V7.01634L22.3683 11.9171L13.8594 16.8178Z" fill="#FCFCF9"/>
</svg>
