<svg width="31" height="31" viewBox="0 0 31 31" fill="none" xmlns="http://www.w3.org/2000/svg">
<g clip-path="url(#clip0_594_729)">
<path d="M30.0643 15.1343C30.0643 17.246 30.0702 19.3576 30.0643 21.4751C30.0525 24.5423 28.6251 26.8131 26.077 28.4175C24.5847 29.3494 22.9272 29.7623 21.1695 29.7623C17.3238 29.7623 13.4839 29.78 9.63819 29.7564C6.96623 29.7387 4.66586 28.795 2.84326 26.8131C1.71667 25.5863 1.04426 24.1412 0.849613 22.4719C0.808325 22.118 0.802426 21.77 0.802426 21.4161C0.802426 17.2106 0.796528 13.005 0.802426 8.79949C0.820121 5.72644 2.24753 3.45556 4.79563 1.8512C6.29971 0.913358 7.96306 0.50637 9.73257 0.50637C13.5665 0.50637 17.4004 0.488675 21.2344 0.512269C23.9181 0.529964 26.2244 1.4796 28.047 3.47325C29.1618 4.69422 29.8283 6.13932 30.0171 7.79087C30.0938 8.43969 30.0584 9.08851 30.0643 9.73143C30.0702 11.5363 30.0643 13.3353 30.0643 15.1343ZM2.99072 15.1343C2.99072 17.2991 2.98482 19.4579 2.99072 21.6226C2.99662 23.109 3.53927 24.3889 4.55379 25.4506C5.91632 26.8721 7.61505 27.5622 9.56741 27.574C13.4426 27.5976 17.312 27.5799 21.1872 27.5799C22.4377 27.5799 23.6291 27.3086 24.7144 26.6834C26.7435 25.5214 27.8878 23.8109 27.8878 21.4161C27.8878 17.1575 27.8878 12.9048 27.8878 8.64613C27.8878 7.17154 27.351 5.89749 26.3424 4.84168C24.9917 3.41427 23.287 2.71236 21.3406 2.70057C17.424 2.67108 13.5134 2.68877 9.59691 2.68877C8.37594 2.68877 7.21986 2.97779 6.15815 3.57943C4.13501 4.7473 2.98482 6.45783 2.99072 8.85258C2.99072 10.9465 2.99072 13.0404 2.99072 15.1343Z" fill="#FCFCF9"/>
<path d="M15.4526 22.1991C11.6422 22.1991 8.58688 19.1555 8.59278 15.357C8.59868 11.6587 11.6953 8.62692 15.4762 8.63282C19.2747 8.63282 22.3419 11.6823 22.336 15.4454C22.3301 19.1732 19.2452 22.1991 15.4526 22.1991ZM15.4526 20.0167C18.042 20.0167 20.1536 17.9582 20.1536 15.4278C20.1536 12.8856 18.0597 10.8152 15.4762 10.8152C12.8868 10.8152 10.7752 12.8738 10.7752 15.4042C10.7752 17.9464 12.8691 20.0167 15.4526 20.0167Z" fill="#FCFCF9"/>
<path d="M21.6904 7.26389C21.6904 6.42632 22.3333 5.75391 23.1355 5.75391C23.9377 5.75391 24.5806 6.43222 24.5806 7.26389C24.5806 8.08377 23.9377 8.75618 23.1473 8.76208C22.3451 8.76798 21.6904 8.10146 21.6904 7.26389Z" fill="#FCFCF9"/>
</g>
<defs>
<clipPath id="clip0_594_729">
<rect width="31" height="30" fill="white" transform="translate(0 0.5)"/>
</clipPath>
</defs>
</svg>
